<svg id="Layer_1" enable-background="new 0 0 512 512" height="512" viewBox="0 0 512 512" width="512" xmlns="http://www.w3.org/2000/svg"><path d="m323.647 362.353h75.013v29.997h-75.013z" fill="#57d9d4" transform="matrix(.707 .707 -.707 .707 372.607 -144.851)"/><path d="m451 512h-345c-24.853 0-45-20.147-45-45v-422h30c0 8.276 6.724 15 15 15h315c16.569 0 30 13.431 30 30z" fill="#766e6e"/><path d="m271 512h180v-422c0-16.569-13.431-30-30-30h-150z" fill="#5b5555"/><path d="m196.762 249.155-42.437-42.422 21.211-21.211 42.437 42.422z" fill="#ffe6b3"/><path d="m133.114 249.155-21.211-21.211 84.859-84.843 21.211 21.211z" fill="#ffe6b3"/><path d="m323.647 377.353h75.013v29.997h-75.013z" fill="#ffca80" transform="matrix(.707 .707 -.707 .707 383.214 -140.457)"/><path d="m239.2 185.4-84.9 84.9 40.201 40.199 20.649-7.5 15.352-28.5 20.999 21-28.499 7.5-7.499 28.5 24 24h20.997l.001-21 20.999 21h-21l.001 21 42.299 42.299 84.9-84.898z" fill="#8cf2f2"/><g fill="#57d9d4"><path d="m197.544 288.15h50.911v29.699h-50.911z" transform="matrix(.707 -.707 .707 .707 -148.939 246.441)"/><path d="m271 386.999 31.8 31.8 84.9-84.899-116.7-116.7z"/><path d="m245.651 340.65h29.698v29.699h-29.698z" transform="matrix(.707 -.707 .707 .707 -175.08 288.344)"/></g><path d="m271 350.999 10.499-10.5-10.499-10.501z" fill="#26bfbf"/><path d="m451 90h-345c-24.814 0-45-20.186-45-45s20.186-45 45-45h345z" fill="#d9f2ff"/><path d="m271 0h180v90h-180z" fill="#cdf"/></svg>